<svg width="48" height="97" viewBox="0 0 48 97" fill="none" xmlns="http://www.w3.org/2000/svg">
<path d="M1 0.5C0.447715 0.5 0 0.947715 0 1.5C0 2.05228 0.447715 2.5 1 2.5V0.5ZM22.5 96.5L33.4791 92.9233L24.8921 85.2035L22.5 96.5ZM1 2.5C14.4271 2.5 24.4671 5.80749 31.5735 11.2112C38.6746 16.6108 42.9316 24.1674 44.6861 32.8309C48.2044 50.2033 41.6343 71.9839 27.7429 89.1744L29.2985 90.4315C43.4619 72.9044 50.3119 50.5335 46.6463 32.4339C44.8089 23.3613 40.3231 15.3518 32.7841 9.61916C25.2505 3.89068 14.7534 0.5 1 0.5V2.5Z" fill="#3f3f3f"/>
</svg>
